PathFileType	4	(X/Y/Z)	C:/Users/opensim2020/Desktop/walking_exp_matlab/subject06_walking17_straight_01.trc																																																																																																																																					
DataRate	CameraRate	NumFrames	NumMarkers	Units	OrigDataRate	OrigDataStartFrame	OrigNumFrames																																																																																																																																	
100	100	4	45	mm	100	1171	305																																																																																																																																	
Frame#	Time	LFHD			RFHD			LBHD			RBHD			C7			T10			CLAV			STRN			RBAK			LSHO			LUPA			LELB			LFRM			LWRA			LWRB			LFIN			RSHO			RUPA			RELB			RFRM			RWRA			RWRB			RFIN			LASI			RASI			LPSI			RPSI			LTHI			LKNE			LTIB			LANK			LHEE			LTOE			RTHI			RKNE			RTIB			RANK			RHEE			RTOE			*39			*40			*41			*42			*43			*44		
		X1	Y1	Z1	X2	Y2	Z2	X3	Y3	Z3	X4	Y4	Z4	X5	Y5	Z5	X6	Y6	Z6	X7	Y7	Z7	X8	Y8	Z8	X9	Y9	Z9	X10	Y10	Z10	X11	Y11	Z11	X12	Y12	Z12	X13	Y13	Z13	X14	Y14	Z14	X15	Y15	Z15	X16	Y16	Z16	X17	Y17	Z17	X18	Y18	Z18	X19	Y19	Z19	X20	Y20	Z20	X21	Y21	Z21	X22	Y22	Z22	X23	Y23	Z23	X24	Y24	Z24	X25	Y25	Z25	X26	Y26	Z26	X27	Y27	Z27	X28	Y28	Z28	X29	Y29	Z29	X30	Y30	Z30	X31	Y31	Z31	X32	Y32	Z32	X33	Y33	Z33	X34	Y34	Z34	X35	Y35	Z35	X36	Y36	Z36	X37	Y37	Z37	X38	Y38	Z38	X39	Y39	Z39	X40	Y40	Z40	X41	Y41	Z41	X42	Y42	Z42	X43	Y43	Z43	X44	Y44	Z44	X45	Y45	Z45
																																																																																																																																								
191	1.9	221.51445	1669.8562	-1091.88	206.37901	1654.82288	-961.27887	91.54959	1613.48633	-1110.58557	77.62366	1602.82751	-982.48291	86.25761	1455.49915	-1050.56335	44.81559	1127.66418	-1039.61816	195.46275	1376.59961	-1044.64038	232.00003	1199.74243	-1047.69849	8.44941	1287.44543	-969.8631	146.59349	1407.99939	-1208.67285	134.2728	1206.40369	-1282.77173	123.03927	1094.9021	-1296.04382	146.4599	946.19452	-1319.12903	203.26808	830.90192	-1275.05945	145.92451	827.00323	-1317.50073	187.63017	746.0603	-1316.8606	146.61043	1411.75708	-885.53424	108.27406	1213.57397	-798.43121	117.90839	1092.20776	-784.12286	130.18988	972.82007	-763.52417	185.81206	830.93323	-788.23639	130.60574	835.04504	-750.36829	165.23959	758.26349	-744.63727	224.57903	964.52008	-1138.59509	210.12195	967.36401	-918.60284	65.35946	996.66614	-1119.30786	60.87576	994.64728	-951.05951	158.46396	651.95172	-1199.7699	158.39908	488.77518	-1177.27246	143.74405	232.64078	-1160.91968	162.08037	61.81085	-1110.43237	123.75209	47.28699	-1063.23755	308.72537	38.62315	-1102.5188	164.90474	629.03644	-865.26227	175.16397	502.741	-881.97076	0.1123	307.35944	-881.94983	-123.33675	166.37144	-921.2666	-168.24829	164.0994	-968.23138	-19.49732	55.54403	-914.16766	114.28316	1704.57019	-1044.23877	NaN	NaN	NaN	NaN	NaN	NaN	NaN	NaN	NaN	NaN	NaN	NaN	NaN	NaN	NaN
192	1.91	227.26462	1670.19336	-1093.32605	211.76901	1655.12561	-962.70935	97.1694	1613.85132	-1112.22546	82.96507	1603.22363	-984.10315	91.45351	1455.84778	-1052.03491	49.87303	1128.08972	-1040.59814	200.67897	1376.91968	-1045.88452	237.0941	1200.04602	-1048.72937	13.56103	1288.07251	-971.01141	151.97232	1408.02234	-1210.02332	141.27635	1206.17896	-1284.07605	131.47498	1094.6792	-1297.62097	156.80684	946.25299	-1320.65637	214.63226	831.41827	-1276.38806	157.76857	827.09698	-1319.10681	200.67624	746.86218	-1318.69153	151.731	1412.38403	-886.83429	113.65553	1214.21545	-799.57227	122.81879	1092.86865	-785.47443	134.79564	973.48962	-764.81696	190.03078	831.38171	-789.43671	134.87172	835.77106	-751.36292	169.08244	758.72931	-745.79865	229.65895	964.88391	-1139.77112	215.29677	967.88904	-919.48419	70.31966	996.93231	-1120.14392	66.11575	995.01324	-951.87134	161.8102	652.29468	-1199.98499	160.76758	488.84555	-1177.61951	144.55069	232.78172	-1160.97986	162.20451	61.88398	-1110.36438	124.00103	47.37986	-1063.01978	308.86356	38.40586	-1102.29639	173.37083	629.74286	-866.48639	185.34616	503.6705	-883.37659	12.44321	306.86404	-882.7746	-109.69785	164.5267	-921.38275	-154.95015	161.10016	-968.09784	-3.70342	56.15026	-914.21356	119.8301	1704.91492	-1045.94226	NaN	NaN	NaN	NaN	NaN	NaN	NaN	NaN	NaN	NaN	NaN	NaN	NaN	NaN	NaN
193	1.92	232.8233	1670.2655	-1094.76392	217.18901	1655.51868	-964.16107	102.77849	1614.29675	-1113.88037	88.15308	1603.71204	-985.76605	96.62846	1456.19397	-1053.35828	54.95586	1128.50671	-1041.56506	205.83519	1377.23523	-1047.11011	242.05882	1200.37598	-1049.70947	18.52619	1288.76807	-972.19318	157.25778	1408.07947	-1211.23962	148.37604	1206.02686	-1285.16333	139.76808	1094.39758	-1298.97607	167.13882	946.44373	-1322.15833	226.42239	832.37103	-1277.79309	169.67909	827.28729	-1320.58618	213.61154	747.7561	-1320.37549	156.79961	1413.06201	-888.12628	118.36523	1214.97314	-800.91864	127.63271	1093.56665	-786.76294	139.38287	974.14966	-766.08026	194.22752	831.89526	-790.63171	139.02657	836.31281	-752.85028	173.10361	759.26477	-747.07684	233.99306	965.05243	-1140.49902	220.53502	968.63403	-920.46704	75.16752	997.125	-1120.922	71.1302	995.51904	-952.59882	164.70607	652.34491	-1200.57068	163.18332	488.90973	-1177.91504	145.44884	232.92216	-1161.02124	162.33588	61.94747	-1110.22693	123.76047	47.45301	-1063.21741	308.98163	38.10257	-1102.00012	181.61481	630.61115	-867.61591	194.99033	504.64102	-885.10938	25.13847	305.79181	-883.63568	-95.47531	162.04163	-921.7019	-140.89615	157.46765	-968.21368	13.26103	56.52036	-914.39587	125.48545	1705.3584	-1047.65503	NaN	NaN	NaN	NaN	NaN	NaN	NaN	NaN	NaN	NaN	NaN	NaN	NaN	NaN	NaN
194	1.93	238.58159	1670.43152	-1096.23792	222.52028	1655.93518	-965.56201	108.28709	1614.70166	-1115.46375	93.46024	1604.4259	-987.43152	101.90001	1456.57471	-1054.68518	59.82581	1129.10645	-1042.5094	210.93579	1377.56018	-1048.26855	247.02309	1200.7616	-1050.7157	23.83649	1289.11072	-973.25781	162.54176	1408.2157	-1212.37305	155.44025	1205.94629	-1286.30286	148.23944	1094.37939	-1300.40295	177.45535	946.70764	-1323.43262	238.07451	833.40173	-1279.14758	181.48529	827.62842	-1322.00916	226.66153	748.80212	-1321.89954	161.78102	1413.70886	-889.34778	123.21785	1215.75269	-802.03491	132.3801	1094.28223	-787.90302	143.89589	974.82092	-767.25037	198.52599	832.50488	-791.862	143.18068	837.02356	-754.02179	177.09531	759.7655	-748.33301	238.59158	965.23199	-1141.56726	225.74547	969.45117	-921.58209	79.98237	997.32031	-1121.71899	76.12384	996.16937	-953.32098	168.64799	652.33856	-1200.55444	165.68579	488.93408	-1178.11462	146.6364	233.1904	-1161.16797	162.54366	62.00241	-1110.09424	123.83121	47.55972	-1063.19067	309.11569	37.7532	-1101.72144	189.7364	631.47424	-868.62408	204.81596	505.7757	-886.65137	38.14271	304.26129	-884.46356	-80.68989	159.22571	-922.16034	-126.55087	153.33435	-968.68927	30.41071	56.27186	-914.86621	131.14957	1705.88892	-1049.30078	NaN	NaN	NaN	NaN	NaN	NaN	NaN	NaN	NaN	NaN	NaN	NaN	NaN	NaN	NaN
